<svg viewBox="0 0 384 54" xmlns="http://www.w3.org/2000/svg">
  <g fill-rule="nonzero" fill="none">
    <g fill="#73787F">
      <path d="M358 0h6v54h-6zM384 26v-6h-8V0h-6v40c0 7.719 6.281 14 14 14v-6c-4.41 0-8-3.59-8-8V26h8zM159 20c-9.375 0-17 7.626-17 17 0 9.375 7.625 17 17 17s17-7.625 17-17c0-9.374-7.625-17-17-17zm0 28c-6.066 0-11-4.934-11-11s4.934-11 11-11 11 4.934 11 11-4.934 11-11 11zM255 20c-9.375 0-17 7.626-17 17 0 9.375 7.625 17 17 17s17-7.625 17-17c0-9.374-7.625-17-17-17zm0 28c-6.066 0-11-4.934-11-11s4.934-11 11-11 11 4.934 11 11-4.934 11-11 11zM124 34v20h6V34c0-4.41 3.59-8 8-8v-6c-7.719 0-14 6.28-14 14zM218 22c-4.457 0-8.434 2.094-11 5.349-2.566-3.255-6.543-5.349-11-5.349-7.719 0-14 6.281-14 14v18h6V36c0-4.41 3.59-8 8-8s8 3.59 8 8v18h6V36c0-4.41 3.59-8 8-8s8 3.59 8 8v18h6V36c0-7.719-6.281-14-14-14zM98 0C86.973 0 78 8.972 78 20v34h6V34.258C87.609 37.805 92.551 40 98 40c11.027 0 20-8.973 20-20 0-11.028-8.973-20-20-20zm0 34c-7.719 0-14-6.28-14-14S90.281 6 98 6s14 6.28 14 14-6.281 14-14 14zM298 0c-11.027 0-20 8.972-20 20v34h6V34.258c3.611 3.547 8.553 5.742 14 5.742 11.027 0 20-8.973 20-20 0-11.028-8.973-20-20-20zm0 34c-7.719 0-14-6.28-14-14s6.281-14 14-14 14 6.28 14 14-6.281 14-14 14zM346 40c0 4.41-3.59 8-8 8s-8-3.59-8-8V20h-6v20c0 7.719 6.281 14 14 14s14-6.281 14-14V20h-6v20z"/>
    </g>
    <path fill="#BABCC2" d="M24 34v20h6V34z"/>
    <path d="M27 0C12.112 0 0 12.112 0 27c0 12.463 8.5 22.953 20 26.047v-6.273C11.857 43.883 6 36.121 6 27 6 15.421 15.421 6 27 6c11.578 0 21 9.421 21 21 0 9.121-5.857 16.883-14 19.773v6.273C45.5 49.953 54 39.463 54 27 54 12.112 41.887 0 27 0z" fill="#FF9B00"/>
  </g>
</svg>
